<?xml version="1.0" standalone="no"?>
<!DOCTYPE svg PUBLIC "-//W3C//DTD SVG 20010904//EN"
 "http://www.w3.org/TR/2001/REC-SVG-20010904/DTD/svg10.dtd">
<svg version="1.0" xmlns="http://www.w3.org/2000/svg"
 width="1000.000000pt" height="1000.000000pt" viewBox="0 0 1000.000000 1000.000000"
 preserveAspectRatio="xMidYMid meet">
<metadata>
Created by potrace 1.14, written by Peter Selinger 2001-2017
</metadata>
<g transform="translate(0.000000,1000.000000) scale(0.100000,-0.100000)"
fill="#000000" stroke="none">
<path d="M0 5000 l0 -5000 5000 0 5000 0 0 5000 0 5000 -5000 0 -5000 0 0
-5000z m5683 4139 c-10 -17 -32 -47 -49 -67 -25 -30 -115 -153 -204 -278 -8
-11 -30 -42 -49 -67 l-35 -47 -137 0 -138 0 -122 -197 c-207 -334 -436 -703
-634 -1023 -104 -168 -250 -404 -325 -525 -300 -482 -382 -617 -378 -620 1 -1
48 -10 103 -19 177 -30 327 -55 460 -76 340 -55 537 -89 542 -94 2 -2 -29 -53
-70 -112 l-75 -109 -411 -3 -411 -2 82 159 c46 88 81 162 78 164 -3 3 -79 8
-170 11 -350 14 -398 16 -505 21 -252 11 -462 19 -492 18 -18 -1 -33 1 -33 3
0 3 23 52 50 110 28 58 50 106 50 109 0 2 22 50 49 107 62 130 184 395 263
568 41 90 67 144 137 293 34 71 61 130 61 132 0 2 34 77 76 167 42 90 87 188
101 218 14 30 40 87 58 125 18 39 47 102 65 140 65 141 103 223 192 415 30 63
67 145 83 182 53 123 -55 97 927 219 474 59 867 108 871 108 5 1 0 -13 -10
-30z m1567 -3889 l0 -440 -75 0 -75 0 0 440 0 440 75 0 75 0 0 -440z m-3403
368 c11 -13 94 -150 183 -306 89 -156 166 -280 170 -275 5 4 79 132 166 283
86 151 166 285 177 298 26 28 76 29 108 3 l24 -19 3 -396 3 -396 -81 0 -80 0
0 238 0 237 -131 -230 c-71 -126 -137 -236 -146 -242 -21 -16 -73 -16 -94 0
-8 7 -73 114 -145 239 l-129 227 -3 -235 -2 -234 -75 0 -75 0 0 395 c0 382 1
396 20 415 28 28 81 26 107 -2z m-897 -63 l0 -75 -300 0 -300 0 0 -242 c0
-136 5 -250 10 -258 8 -13 56 -16 297 -20 l288 -5 3 -72 3 -73 -296 0 c-326 0
-340 2 -403 63 -56 54 -62 95 -62 409 0 227 3 284 15 308 8 15 20 30 27 33 7
3 172 6 366 6 l352 1 0 -75z m660 -200 l0 -75 -180 0 c-167 0 -181 -1 -200
-20 -19 -19 -20 -33 -20 -235 l0 -215 -75 0 -75 0 0 232 c0 214 2 235 21 275
11 23 34 53 51 65 59 41 94 47 291 48 l187 0 0 -75z m1762 43 c35 -21 53 -41
73 -82 26 -53 27 -59 23 -208 -4 -177 -18 -218 -90 -265 -41 -28 -43 -28 -232
-31 -154 -3 -198 0 -231 12 -161 62 -172 286 -19 373 36 21 52 23 207 23 l167
0 0 -70 0 -70 -145 0 c-142 0 -147 -1 -170 -25 -14 -13 -25 -31 -25 -40 0 -9
11 -27 25 -40 23 -24 28 -25 175 -25 197 0 190 -6 190 168 0 87 -4 134 -12
145 -11 14 -38 17 -193 19 l-180 3 -3 73 -3 74 198 -4 c195 -3 199 -3 245 -30z
m810 -3 c25 -18 52 -49 66 -75 20 -40 22 -58 22 -203 0 -170 -8 -204 -62 -254
-48 -45 -87 -53 -258 -53 l-160 0 0 75 0 75 147 0 c191 0 183 -7 183 157 0
168 6 163 -189 163 -127 0 -152 -3 -170 -17 -21 -18 -21 -26 -24 -333 l-2
-315 -75 0 -75 0 -3 313 c-1 207 2 328 9 355 13 50 79 118 130 134 21 8 104
11 226 10 l191 -2 44 -30z m748 -40 l0 -75 -197 -2 c-190 -3 -198 -4 -198 -23
0 -19 8 -20 160 -25 177 -6 199 -12 253 -74 38 -44 56 -106 48 -170 -8 -70
-46 -122 -109 -152 -50 -23 -60 -24 -279 -24 l-228 0 0 75 0 75 211 0 c126 0
218 4 230 10 13 7 19 21 19 43 0 61 -3 62 -189 67 -184 5 -197 9 -244 71 -65
88 -18 238 86 268 17 5 123 10 235 10 l202 1 0 -75z m709 65 c56 -16 100 -52
126 -104 24 -49 25 -55 25 -278 l0 -228 -80 0 -80 0 0 225 c0 212 -1 225 -19
235 -11 5 -83 10 -160 10 l-141 0 0 75 0 75 148 0 c81 0 162 -4 181 -10z
m-4761 -202 l3 -78 -241 0 -240 0 0 73 c0 41 3 77 7 81 4 3 110 5 237 4 l231
-3 3 -77z m706 -760 c-8 -13 -151 -224 -243 -357 -28 -41 -51 -78 -51 -83 0
-4 11 -8 25 -8 14 0 130 -18 258 -39 127 -21 336 -56 462 -76 127 -21 234 -41
238 -45 5 -4 -70 -147 -166 -316 -96 -170 -265 -471 -377 -669 -111 -198 -251
-445 -310 -550 -59 -104 -207 -368 -330 -585 -122 -217 -271 -480 -330 -585
-59 -104 -122 -217 -140 -250 -18 -33 -39 -69 -46 -80 -43 -62 6 -20 162 140
109 112 163 161 141 130 -19 -27 -67 -97 -106 -155 -39 -58 -89 -130 -111
-160 -22 -30 -48 -66 -57 -80 -9 -14 -31 -41 -48 -61 -16 -20 -63 -81 -102
-135 -40 -55 -82 -110 -93 -124 l-20 -25 10 30 c10 30 70 173 95 230 8 17 24
55 35 85 12 30 28 69 36 85 7 17 28 68 47 115 19 47 51 124 71 173 20 48 52
126 72 175 65 159 106 257 114 273 4 8 20 47 34 85 15 38 31 76 35 85 5 8 21
47 35 85 15 38 31 77 37 86 5 10 17 39 28 65 10 27 40 100 66 163 26 63 56
135 65 160 10 25 37 90 60 145 46 111 121 291 155 375 12 30 66 161 120 290
54 129 108 260 120 290 12 30 44 107 70 170 26 63 60 145 75 183 15 37 25 69
21 71 -3 1 -51 4 -106 5 -55 1 -131 4 -170 6 -86 5 -255 12 -485 21 -96 3
-197 7 -225 9 -27 2 -57 4 -67 4 -13 1 -8 16 26 84 24 45 93 179 153 297 61
118 119 230 129 247 l19 33 288 0 c228 0 287 -3 281 -12z"/>
</g>
</svg>
